<?xml version="1.0" encoding="UTF-8"?>
<!-- Generator: Adobe Illustrator 24.0.0, SVG Export Plug-In . SVG Version: 6.00 Build 0)  -->
<svg version="1.1" id="Ebene_1" xmlns="http://www.w3.org/2000/svg" xmlns:xlink="http://www.w3.org/1999/xlink" x="0px" y="0px" viewBox="0 0 708.7 164.8" style="enable-background:new 0 0 708.7 164.8;" xml:space="preserve">
<style type="text/css">
	.st0{fill:#00497D;}
	.st1{fill:#F49B00;}
	.st2{fill:#FFFFFF;}
</style>
<g>
	<g>
		<path class="st0" d="M163.3,90.2c0-0.6,0.3-1.2,1-1.2c0.4,0,0.9,0.3,1.3,0.4c4.5,2.2,7.8,3.6,12.9,3.6c4.7,0,9.7-1.7,9.7-7.2    c0-4.1-3.4-6.3-6.4-8.5l-9-6.3c-4.9-3.5-7.7-7-7.7-13.3c0-11.3,9.1-16.7,19.5-16.7c3.8,0,9.3,0.9,12.8,2.3    c1.2,0.5,1.5,0.9,1.5,2.2v6.4c0,0.6-0.3,1.2-1,1.2c-0.5,0-1-0.2-1.4-0.4c-4-1.9-6.7-2.9-11.2-2.9c-4.2,0-8.6,1.4-8.6,6.3    c0,3.6,2.9,5.6,5.6,7.4l9.6,6.4c5.6,3.7,8.8,7.6,8.8,14.7c0,12.3-9.8,17.1-20.8,17.1c-4.8,0-10.5-0.9-15-2.9    c-1.3-0.6-1.6-1.1-1.6-2.6V90.2z"/>
		<path class="st0" d="M228.9,55.9c3.3,0,6.7,0.4,9.8,1.3c1.7,0.4,4.4,0.9,4.4,3.1v4.8c0,0.5-0.3,1.1-0.9,1.1    c-0.5,0-1.2-0.3-1.7-0.5c-3-1.5-6.4-2.4-9.8-2.4c-9.9,0-13.4,6.5-13.4,15.7c0,8.7,3.2,15.5,12.9,15.5c3.6,0,7.4-1,10.6-2.7    c0.4-0.3,1-0.5,1.5-0.5c1.2,0,0.8,5,0.8,5.9c0,1.6-0.2,1.8-1.5,2.4c-3.5,1.6-9.2,2.5-13,2.5c-14.2,0-22-8.7-22-22.6    C206.6,65.8,215,55.9,228.9,55.9z"/>
		<path class="st0" d="M250.9,57.9c0-0.6,0.5-1.2,1.2-1.2h7.2c1.8,0,1.4,1.3,1.4,2.7c1.2-0.1,1.4-0.2,2.5-0.6c3-1.3,6.7-2.4,10-2.4    c0.7,0,1.5,0.1,2.2,0.2c1.2,0.2,1.3,0.5,1.3,1.7v6.5c0,0.9-0.4,1.4-1.3,1.4c-2.2,0-4.4-0.7-6.7-0.7c-4.8,0-7.1,1.3-7.1,6.5v28.1    c0,0.6-0.5,1.2-1.2,1.2H252c-0.6,0-1.2-0.5-1.2-1.2V57.9z"/>
		<path class="st0" d="M289,39c3.8,0,6,1.7,6,5.6c0,4.1-2.5,5.5-6.3,5.5c-4,0-6.1-1.4-6.1-5.6C282.5,40.2,285.1,39,289,39z     M283.4,57.9c0-0.6,0.5-1.2,1.2-1.2h8.4c0.6,0,1.2,0.5,1.2,1.2v42.2c0,0.6-0.5,1.2-1.2,1.2h-8.4c-0.6,0-1.2-0.5-1.2-1.2V57.9z"/>
		<path class="st0" d="M303.6,57.9c0-0.6,0.5-1.2,1.2-1.2h6.8c1.9,0,1.7,0.7,1.7,2.1c1.2,0,1.5-0.3,2.5-0.8c2.9-1.6,6.3-2.2,9.6-2.2    c13.5,0,21,9.6,21,22.6c0,12.8-8.1,23.3-21.5,23.3c-2.7,0-5.8-0.6-8.2-2c-1-0.5-1.2-0.8-2.4-0.8v18.7c0,0.6-0.5,1.2-1.2,1.2h-8.4    c-0.6,0-1.2-0.5-1.2-1.2V57.9z M323.1,94.4c3.5,0,6.9-1.2,9.3-3.7c3-3.2,3.3-8,3.3-12.2c0-8.3-3.3-15.2-12.5-15.2    c-4.1,0-8.8,1.4-8.8,6.3v18.9C314.3,93.1,319.3,94.4,323.1,94.4z"/>
		<path class="st0" d="M351.4,56.8h4.2V45.9c0-0.6,0.5-1.2,1.2-1.2h8.4c0.6,0,1.2,0.5,1.2,1.2v10.9h13.1c0.6,0,1.2,0.5,1.2,1.2v4.9    c0,0.6-0.5,1.2-1.2,1.2h-13.1v24c0,4.2,1.9,6.4,6.1,6.4c2.1,0,3.8-0.5,5.8-1.3c0.4-0.2,1.1-0.4,1.4-0.4c0.7,0,0.9,0.4,0.9,1.1v4.5    c0,1.2-0.3,1.5-1.3,2c-2.6,1.2-6.8,1.7-9.6,1.7c-3.6,0-7.6-0.7-10.5-3c-2.9-2.3-3.5-5.7-3.5-9.3V64c-6.5,0-5.3,0.7-5.3-6.1    C350.2,57.3,350.7,56.8,351.4,56.8z"/>
	</g>
	<g>
		<path class="st0" d="M405.2,42.6c0.2-0.6,0.8-1.3,1.5-1.3h13.4c5,0,9.7,0.6,12.5,4.2c2.3,3,2.6,7,1.5,11.2    c-2.9,10.9-12.4,15.6-22.3,15.6l15,26.4c0.3,0.4,0.4,0.7,0.3,1.3c-0.3,1-1.4,1.2-2.2,1.2h-3.4c-0.4,0-0.6-0.2-0.8-0.4l-16.1-28.4    c-0.1-0.2-0.3-0.4-0.3-0.5c-0.4-0.3-0.9-0.2-1.4-0.2l-7.6,28.4c-0.5,1.7-3.6,1.2-4.6,1.2c-0.6,0-1-0.5-0.9-1.2L405.2,42.6z     M413,67.9c7.2,0,13.7-3.4,15.7-11.1c2.1-7.7-2.7-10.9-9.8-10.9h-9.1l-5.9,22H413z"/>
		<path class="st0" d="M443.9,57.7c0.5-1.7,3.5-1.2,4.5-1.2c0.6,0,1,0.5,0.9,1.2l-7.7,28.7c-2,7.6,1.2,11.8,8.8,11.8    c4.3,0,11.9-0.6,13.5-6.5l9.1-34c0.5-1.7,3.5-1.2,4.5-1.2c0.6,0,1.1,0.4,0.9,1.2l-11.4,42.4c-0.4,1.6-2.7,1.2-3.7,1.2    c-2.2,0,0.3-2.3-1.4-2.3c-0.4,0-0.8,0.2-1.2,0.3c-0.2,0.1-0.5,0.2-0.7,0.3c-4.3,1.5-9,2.5-13.2,2.5c-3.7,0-7.3-0.9-9.6-3.2    c-3-3.1-2.6-7.1-1.3-11.9L443.9,57.7z"/>
		<path class="st0" d="M490.3,57.7c0.4-1.6,2.7-1.2,3.7-1.2c2,0-0.3,2.2,1.2,2.2c0.6,0,1.3-0.4,1.9-0.6c4-1.6,7.7-2.3,11.7-2.3    c4.2,0,8.8,1,11.1,4c2.9,3.8,2,8.8,0.6,14l-7,26.2c-0.5,1.7-3.5,1.2-4.6,1.2c-0.6,0-1-0.5-0.9-1.2l7.4-27.5c2.2-8.3,0.1-13-8.5-13    c-3.6,0-11.8,0.9-13.2,5.9l-9.3,34.6c-0.5,1.7-3.5,1.2-4.6,1.2c-0.6,0-1-0.5-0.9-1.2L490.3,57.7z"/>
		<path class="st0" d="M535.7,57.7c0.4-1.6,2.7-1.2,3.7-1.2c2,0-0.3,2.2,1.2,2.2c0.6,0,1.3-0.4,1.9-0.6c4-1.6,7.7-2.3,11.7-2.3    c4.2,0,8.8,1,11.1,4c2.9,3.8,2,8.8,0.6,14l-7,26.2c-0.5,1.7-3.5,1.2-4.6,1.2c-0.6,0-1-0.5-0.9-1.2l7.4-27.5c2.2-8.3,0.1-13-8.5-13    c-3.6,0-11.8,0.9-13.2,5.9l-9.3,34.6c-0.5,1.7-3.5,1.2-4.6,1.2c-0.6,0-1-0.5-0.9-1.2L535.7,57.7z"/>
		<path class="st0" d="M599,55.8c10.5,0,16,8,13.2,18.4l-0.6,2.3c-0.2,0.6-0.9,1.2-1.5,1.2h-31.5c-1.3,5-2.4,10-0.6,14.2    c1.9,4.5,6.5,6.3,11.8,6.3c4,0,7.7-1.1,11.6-3.1c0.4-0.2,1.4-0.7,1.8-0.7c1.1,0,0.3,2.1,0.1,2.8c-1,3.8-12.4,4.9-15,4.9    c-13.8,0-19.3-9.3-15.7-22.8C575.9,67,585.9,55.8,599,55.8z M606.8,73.9c1.9-8-0.7-14.4-9.3-14.4c-8.2,0-15.2,6.6-18,14.4H606.8z"/>
		<path class="st0" d="M624.9,57.7c0.2-0.6,0.9-1.2,1.5-1.2h2.2c2.2,0-0.6,3.1,1.1,3.1c0.3,0,0.6-0.2,0.8-0.3    c4.6-2.2,9.3-2.8,13.8-2.8c2.4,0,1.4,1.9,0.9,3.8c-0.2,0.9-0.8,1.5-1.8,1.5c-2.1,0-4.7-0.9-7.1-0.9c-4.6,0-7.2,1.8-8.5,6.5    l-8.8,32.7c-0.2,0.7-0.9,1.2-1.6,1.2h-3.1c-0.6,0-1-0.5-0.9-1.2L624.9,57.7z"/>
	</g>
	<g>
		<path class="st0" d="M660.8,38.9c5.7,0,10.3,4.6,10.3,10.3c0,5.7-4.6,10.3-10.3,10.3c-5.7,0-10.3-4.6-10.3-10.3    C650.6,43.4,655.1,38.9,660.8,38.9z M660.8,58.1c4.9,0,8.9-4,8.9-8.9c0-4.9-4-8.9-8.9-8.9c-4.9,0-8.9,4-8.9,8.9    C651.9,54.1,655.9,58.1,660.8,58.1z M657.4,44c0-0.1,0.1-0.2,0.2-0.2h3.5c1.9,0,3.3,0.7,3.3,2.8c0,1.5-0.7,2.5-2.2,2.7    c0.3,0.2,1.2,1.7,1.5,2.1l1.7,2.5c0.1,0.1,0.2,0.3,0.2,0.3c0,0.2-0.2,0.2-0.4,0.2h-1.9c-0.3-0.2-2.8-4.2-3.2-4.7    c-0.2-0.4-0.3-0.3-0.7-0.3v4.7c0,0.1-0.1,0.2-0.2,0.2h-1.6c-0.1,0-0.2-0.1-0.2-0.2V44z M660.8,48.4c1,0,1.5-0.7,1.5-1.6    c0-0.9-0.5-1.6-1.5-1.6h-1.4v3.2H660.8z"/>
	</g>
</g>
<path class="st1" d="M85.5,22.9c-26.5,0-48,21.5-48,48c0,26.5,21.5,48,48,48s48-21.5,48-48C133.5,44.3,112,22.9,85.5,22.9z"/>
<path class="st2" d="M63,101.6c-1.4,0-2.9-0.6-3.8-1.8c-1.8-2.1-1.5-5.3,0.6-7l26.6-22.2l-14-21.9c-1.5-2.3-0.8-5.4,1.5-6.9  c2.3-1.5,5.4-0.8,6.9,1.5l16.4,25.6c1.4,2.1,0.9,4.9-1,6.5l-30,25C65.2,101.2,64.1,101.6,63,101.6z"/>
<path class="st2" d="M107.2,101.5h-18c-2.8,0-5-2.2-5-5c0-2.8,2.2-5,5-5h18c2.8,0,5,2.2,5,5C112.2,99.3,110,101.5,107.2,101.5z"/>
</svg>